<svg xmlns="http://www.w3.org/2000/svg" width="633.318" height="578.478" xmlns:v="https://vecta.io/nano"><style><![CDATA[.B{fill:#2f2e41}.C{fill:#a0616a}.D{fill:#f2f2f2}.E{fill:#995fbf}.F{fill:#3f3d56}]]></style><circle cx="189" cy="235" r="66" class="D"/><path d="M218.155 227.631h-21.786v-21.786a7.37 7.37 0 0 0-7.369-7.369 7.37 7.37 0 0 0-7.369 7.369v21.786h-21.786a7.37 7.37 0 0 0-7.369 7.369 7.37 7.37 0 0 0 7.369 7.369h21.786v21.786a7.37 7.37 0 0 0 7.369 7.369 7.37 7.37 0 0 0 7.369-7.369v-21.786h21.786a7.37 7.37 0 0 0 7.369-7.369 7.37 7.37 0 0 0-7.369-7.369z" fill="#fff"/><path d="M521.431 84.079c4.665 29.391-3.893 36.429-12.181 43.921-20.01-14.85-32.937-16.548-51.317-11.288-.01-.25-.003-14.462-.023-14.702-.27-2.97-1.057 6.352-2.977 4.702-.36 2.68-2.893 11.348-3.133 11.978v.01c-2 .95-4.07 2.14-6.23 3.6 5.014-22.043 5.701-55.103-1.637-68.588 0-19.989 22.441-13.012 38.354-25.109 8.372-6.364 20.097 3.881 26.953 10.737l.201.2c11.737 11.627 16.406 28.618 11.99 44.539z" class="B"/><path d="M514.947 555.203l-10.805.223-6.023-42.495 15.946-.33.882 42.602z" class="C"/><path d="M480.849 573.387a4.84 4.84 0 0 0 4.93 4.732l21.481-.447 3.538-7.73 1.604 7.619 8.106-.163-2.842-27.26-2.825-.105-11.522-.458-3.717-.14.16 7.732-16.911 12.204a4.83 4.83 0 0 0-2.001 4.016z" class="B"/><path d="M438.5 194.5c.764 15.154-2.323 28.91-10 41l75-1-4-36-61-4z" class="C"/><path d="M526.937 427H32.063C14.383 427 0 412.616 0 394.937V32.063C0 14.383 14.383 0 32.063 0h494.874C544.617 0 559 14.383 559 32.063v362.874c0 17.68-14.383 32.063-32.063 32.063zM331.354 2C149.457 2 2 149.457 2 331.354v63.582C2 411.54 15.46 425 32.063 425h494.874C543.54 425 557 411.54 557 394.937V32.063C557 15.46 543.54 2 526.937 2H331.354z" class="D"/><path d="M505 226l-76 9-9 50 13 84 7 41 50 135 33-5.008L490.5 388.5l28.508-70.5s9.492-49.5-9.508-66.5L505 226z" class="B"/><path d="M494.5 93.5l-31-1-7 19-14 10-5 27s-18 17-14 29S432 206 432 206l70.5 9.5 22-93-23-13-7-16z" class="E"/><path d="M329.632 213.713l29.951-11.967 9.223 16.156-32.116 11.525a10.79 10.79 0 0 1-1.928 2.535 10.8 10.8 0 0 1-15.266-.198 10.8 10.8 0 0 1 .198-15.266c2.723-2.654 6.488-3.571 9.939-2.786z" class="C"/><path d="M462.966 124.16c-2.02-4.95 5.846-9.521 1.627-13.321-5.761-5.182-15.221 1.851-22.335 10.034-3.292 3.796-6.093 7.835-7.77 11.012l-2.046 2.417-8.84 13.61-31.449 31.458-6.408 6.346-44.715 21.015.09.337.493 1.864c1.117 4.123 3.468 12.423 5.517 16.751.716 1.499 1.383 2.514 1.954 2.725.181.065.702-.017 1.512-.241 5.443-1.494 24.164-9.022 42.556-16.628 16.746-6.919 11.227-6.907 17.185-9.439l.108-.044 47.478-41.924 3.925-3.413c8.605-10.69 6.008-20.594 1.116-32.56z" class="E"/><path d="M518.523 544.928l-9.709 4.747-23.338-36.019 14.327-7.007 18.72 38.279z" class="C"/><path d="M495.236 575.768a4.84 4.84 0 0 0 6.463 2.219l19.301-9.44-.042-8.501 4.66 6.238 7.285-3.557-14.045-23.535-2.607 1.093-10.646 4.431-3.431 1.436 3.397 6.947-10.209 18.185a4.83 4.83 0 0 0-.126 4.485zM457.5 308.5l-37.613 84.029c-5.872 13.118-4.869 28.293 2.678 40.524L483 531l30.709-2.74L490.5 388.5" class="B"/><circle cx="480.596" cy="61.73" r="27.762" class="C"/><g class="B"><path d="M517.66 62.55c-1.03 5.68-1.29 13.06-4.53 17.99-2.3 3.51-6.43 2.75-10.19 2.75l-3.05 2.87c-.78-2.31.43-5.78 1.53-7.83 1.09-2.02 3.29-3.21 4.31-5.29.73-1.49 4.3-12.54-.85-10.4l-.06.03c-1.85.75-3.87-.62-3.9-2.62-.02-1.36-.07-2.82-.19-3.84-.37-3.11-.21-7.79-1.71-10.49-3.87 1.14-1.69 7.76-6.51 7.95l-7.46.29c.06-2.37-.47-4.85-2-6.15-.27 2.08-.46 4.31-1.22 6.27-.95.03-2.051-.428-2.83.1-5.875 3.983-11.778 4.794-17 1.23-.17-1.84-.76-3.58-1.95-4.6-.22 1.66-.38 3.42-.83 5.06-4.83 1.64-7.611 7.689-11.561 5.369-13.61-8 8.111-39.779 25.131-30.629 7.07 3.8 15.04-.1 22.9 1.54 5.84 1.22 11.83 4.52 15.97 8.81 5.8 6 7.45 13.63 6 21.59z"/><path d="M505.969 39.465c-3.488-2.681-9.503 6.854-10.49 12.887-1.67 10.206 18.181 7.887 4.466 34.453-4.61 8.929-.04 17.906-3.614 26.063-2.665 6.083-7.571 13.366-12.108 13.264 7.397-.829 20.114-2.661 24.445-15.691 2.359-7.097 1.133-15.288 1.575-23.065.499-8.778.078-19.789 1.396-28.144"/></g><path d="M170.972 81.532c-1.103 0-2 .897-2 2v31c0 1.103.897 2 2 2s2-.897 2-2v-31c0-1.103-.897-2-2-2z" class="F"/><ellipse cx="190.573" cy="99.202" rx="12.463" ry="12.201" class="E"/><path d="M290.485 95.028H223.4a4.18 4.18 0 0 1-4.174-4.174 4.18 4.18 0 0 1 4.174-4.174h67.085a4.18 4.18 0 0 1 4.174 4.174 4.18 4.18 0 0 1-4.174 4.174zm52.354 14.127H223.401a4.18 4.18 0 0 1-4.174-4.174 4.18 4.18 0 0 1 4.174-4.174h119.438a4.18 4.18 0 0 1 4.174 4.174 4.18 4.18 0 0 1-4.174 4.174z" class="D"/><circle cx="62.5" cy="53.5" r="39.5" fill="#fff"/><path d="M39.615 61.967l7.076 25.513c11.623-8.626 19.117-17.729 29.793-14.673.006-.145.017-.285.029-.424.157-1.725.709-3.352 1.824-4.31.209 1.557.354 3.206.778 4.74a12.15 12.15 0 0 0 .366 1.127v.006c1.162.552 2.364 1.243 3.619 2.091V51.408c0-11.611-10.727-15.799-20.748-21.665-7.694-4.504-11.674 2.254-15.656 6.237l-.117.116c-6.818 6.754-9.53 16.624-6.965 25.872z" class="B"/><circle cx="63.335" cy="48.986" r="16.126" class="C"/><g class="B"><path d="M41.806 49.462c.598 3.299.749 7.586 2.631 10.45 1.336 2.039 3.735 1.597 5.919 1.597l1.772 1.667c.453-1.342-.25-3.357-.889-4.548-.633-1.173-1.911-1.865-2.504-3.073-.424-.866-2.498-7.284.494-6.041l.035.017c1.075.436 2.248-.36 2.265-1.522.012-.79.041-1.638.11-2.231.215-1.807.122-4.525.993-6.093 2.248.662.982 4.508 3.782 4.618l4.333.168c-.035-1.377.273-2.817 1.162-3.572.157 1.208.267 2.504.709 3.642l1.644.058c3.23.122 6.099 1.207 9.294 1.067.099-1.069.441-2.08 1.133-2.672.128.964.221 1.987.482 2.939 2.806.953 5.193 3.652 7.487 2.304 7.906-4.647-4.902-22.645-14.789-17.33-4.107 2.207-8.736-.058-13.302.895-3.392.709-6.872 2.626-9.277 5.118-3.369 3.485-4.328 7.917-3.485 12.541z"/><path d="M48.597 36.052c2.026-1.557 5.52 3.981 6.094 7.486.97 5.928-2.142 13.959-2.594 20.013-.435 5.821.023 10.401 2.099 15.139 1.548 3.533 4.398 7.764 7.033 7.705-4.297-.482-11.684-1.546-14.2-9.115-1.37-4.123-.658-8.881-.915-13.398-.29-5.099-.045-11.495-.811-16.349"/></g><path d="M579.059 560.897c2.066.129 3.208-2.437 1.645-3.933l-.155-.618.062-.148c2.089-4.982 9.17-4.947 11.241.042 1.839 4.428 4.179 8.864 4.756 13.546a18.03 18.03 0 0 1-.316 6.2c4.308-9.411 6.575-19.687 6.575-30.021 0-2.597-.142-5.193-.433-7.783-.239-2.119-.568-4.224-.995-6.31-2.306-11.277-7.299-22.018-14.5-30.99-3.462-1.892-6.349-4.851-8.093-8.397-.626-1.279-1.117-2.655-1.35-4.056.394.052 1.486-5.949 1.188-6.317.549-.833 1.532-1.247 2.131-2.06 2.982-4.043 7.091-3.337 9.236 2.157 4.582 2.313 4.627 6.148 1.815 9.837-1.789 2.347-2.035 5.522-3.604 8.035l.491.614c2.961 3.798 5.522 7.88 7.681 12.169-.61-4.766.291-10.508 1.826-14.21 1.748-4.217 5.025-7.769 7.91-11.415 3.466-4.379 10.573-2.468 11.184 3.083l.017.161a20.88 20.88 0 0 0-1.259.77c-2.339 1.547-1.531 5.174 1.241 5.602l.063.01c-.155 1.544-.42 3.074-.807 4.579 3.702 14.316-4.29 19.53-15.701 19.764l-.749.381c1.156 3.255 2.08 6.594 2.764 9.979.614 2.99 1.04 6.013 1.279 9.049.297 3.83.271 7.68-.052 11.503l.019-.136c.82-4.211 3.107-8.145 6.427-10.87 4.946-4.063 11.933-5.559 17.268-8.824 2.568-1.572 5.859.459 5.411 3.437l-.022.143c-.794.323-1.569.698-2.319 1.117a20.91 20.91 0 0 0-1.259.77c-2.339 1.547-1.531 5.174 1.241 5.602l.063.01.129.019c-1.363 3.236-3.262 6.239-5.639 8.829-2.315 12.497-12.256 13.683-22.89 10.044h-.006c-1.163 5.064-2.861 10.011-5.044 14.726h-18.02c-.065-.2-.123-.407-.181-.607 1.666.103 3.346.006 4.986-.297l-4.011-4.935a1.12 1.12 0 0 1-.084-.097l-2.041-2.512v-.001a29.99 29.99 0 0 1 .879-7.64h.001z" class="D"/><path d="M377.507 577.039c0 .66.53 1.19 1.19 1.19h253.29c.66 0 1.19-.53 1.19-1.19s-.53-1.19-1.19-1.19h-253.29c-.66 0-1.19.53-1.19 1.19z" fill="#ccc"/><path d="M327 233v106c0 9.374-7.626 17-17 17H204c-9.374 0-17-7.626-17-17V233c0-9.374 7.626-17 17-17h106c9.374 0 17 7.626 17 17zm-17 121c8.284 0 15-6.716 15-15v-53.441C325 248.247 294.753 218 257.441 218H204c-8.284 0-15 6.716-15 15v106c0 8.284 6.716 15 15 15h106z" class="F"/><path d="M325.127 286c0-37.625-31.801-58.323-68.127-68.127-46.573-12.569-80.682 12.865-68.127 68.127 8.336 36.69 50.648 91.446 68.127 58.127C277 306 325.127 323.625 325.127 286z" class="E"/><g class="F"><use href="#B"/><use href="#B" y="33.364"/><path d="M289.474 275.985h-70.947c-.863 0-1.565-.702-1.565-1.565s.702-1.564 1.565-1.564h70.947c.863 0 1.564.702 1.564 1.564s-.702 1.565-1.564 1.565z"/></g><path d="M467 304.257v51.486a8.27 8.27 0 0 1-8.257 8.257h-51.486a8.27 8.27 0 0 1-8.257-8.257v-51.486a8.27 8.27 0 0 1 8.257-8.257h51.486a8.27 8.27 0 0 1 8.257 8.257zm-8.257 58.771a7.29 7.29 0 0 0 7.286-7.286v-25.957c0-18.123-14.692-32.814-32.814-32.814h-25.957a7.29 7.29 0 0 0-7.286 7.286v51.486a7.29 7.29 0 0 0 7.286 7.286h51.486z" fill="#e6e6e6"/><path d="M466.09 330c0-18.275-15.035-30.26-33.09-33.09-22.853-3.582-36.114 12.449-33.09 33.09 2.649 18.082 24.601 44.417 33.09 28.233 9.714-18.519 33.09-9.958 33.09-28.233z" class="D"/><g class="F"><use href="#C"/><use href="#C" y="16.205"/><path d="M448.773 325.136h-34.46a.76.76 0 0 1-.76-.76.76.76 0 0 1 .76-.76h34.46a.76.76 0 0 1 .76.76.76.76 0 0 1-.76.76z"/></g><path d="M458.18 287.75l19.024-26.046 16.395 8.791-21.093 26.822a10.79 10.79 0 0 1-.288 3.172 10.8 10.8 0 0 1-13.041 7.94 10.8 10.8 0 0 1-7.94-13.041c.898-3.695 3.601-6.471 6.942-7.639z" class="C"/><path d="M527.524 123.445c-4.34-3.122-9.424-5.33-15.016-6.31-7.633-1.332-.914 9.652-2.597 20.364-.774 4.965-1.002 9.874-.736 13.458l-.449 3.135-.263 16.227-.621 37.515-16.983 26.395-26.728 41.553.256.237 1.408 1.317c3.136 2.9 9.536 8.684 13.571 11.264 1.402.89 2.507 1.396 3.103 1.271.188-.041.586-.387 1.153-1.007 3.818-4.156 15.684-20.477 27.229-36.69l24.473-34.739.068-.095-2.355-54.896 1.514-4.976c1.614-13.628 3.475-26.482-7.024-34.023z" class="E"/><path d="M502.226 35.058c-2.685-1.852-6.48-7.89-1.758-9.694 3.477-1.328 9.209 2.052 12.153 3.764 3.286 1.912 5.839 4.837 6.046 8.731.311 5.869-6.36 6.619-10.393 4.569M45.642 39.156c-1.278 1.573-5.203 3.629-6.09.616-.653-2.218 1.72-5.604 2.924-7.344 1.344-1.942 3.281-3.381 5.703-3.319 3.65.093 3.789 4.262 2.323 6.66" class="B"/><defs ><path id="B" d="M271.11 259.292H236.89c-.863 0-1.565-.702-1.565-1.565s.702-1.564 1.565-1.564h34.221c.863 0 1.564.702 1.564 1.564s-.702 1.565-1.564 1.565z"/><path id="C" d="M439.854 317.028h-16.621a.76.76 0 0 1-.76-.76.76.76 0 0 1 .76-.76h16.621a.76.76 0 0 1 .76.76.76.76 0 0 1-.76.76z"/></defs></svg>