<svg xmlns="http://www.w3.org/2000/svg" width="799.465" height="552.326" xmlns:v="https://vecta.io/nano"><path d="M785.854-.001H13.613A13.75 13.75 0 0 0 0 13.847v524.66c-.044 7.57 6.043 13.749 13.613 13.819h772.241c7.569-.07 13.656-6.249 13.613-13.819V13.847A13.75 13.75 0 0 0 785.856-.001z" fill="#090814"/><path d="M763.532 3.163h-748.6c-7.293.014-13.199 5.93-13.2 13.223v501.007a13.22 13.22 0 0 0 13.2 13.2h748.6a13.22 13.22 0 0 0 13.2-13.2V16.387c-.001-7.291-5.903-13.206-13.194-13.223z" fill="#fff"/><path d="M200.888 45c34.242 0 62 27.758 62 62s-27.758 62-62 62-62-27.758-62-62 27.758-62 62-62z" fill="#995fbf"/><path d="M200.888 49.769c31.608 0 57.231 25.623 57.231 57.231s-25.623 57.231-57.231 57.231-57.231-25.623-57.231-57.231 25.623-57.231 57.231-57.231z" fill="#f2f2f2"/><path d="M201.823 135.38h-.025c-3.203-.005-6.251-1.381-8.374-3.78-.531-.448-.743-1.169-.54-1.833a6.09 6.09 0 0 1 1.352-1.795h0l.973-1.081.309-.018h12.581 0l.581.5.014.011a17.6 17.6 0 0 1 1.556 1.433c.421.345.661.864.651 1.408s-.27 1.054-.704 1.382c-2.124 2.396-5.172 3.769-8.374 3.773zm22.5-11.351h-45.024a2.76 2.76 0 0 1-1.792-.627 2.91 2.91 0 0 1-.932-1.488 2.94 2.94 0 0 1 .084-1.757c.235-.611.679-1.12 1.253-1.436a8.85 8.85 0 0 1 1.58-.669h0a3.74 3.74 0 0 0 1.869-1.073 6.94 6.94 0 0 0 .73-2.451l.022-.124v-10.372a22.7 22.7 0 0 1 10.755-18.311l.7-.414.029-.122c.408-1.639 1.504-3.021 3.006-3.793a10.96 10.96 0 0 1 2.406-.987 17.04 17.04 0 0 1 2.624-.521l.512-.048c1.195.263 2.364.635 3.491 1.111.936.384 1.816.891 2.617 1.508a4.63 4.63 0 0 1 1.652 2.243l.127.484.025.122c3.106 1.771 5.75 4.252 7.713 7.24 1.969 2.999 3.205 6.419 3.609 9.984l.079.815.053.82v8.318l-.132 1.924a.6.6 0 0 1 0 .106v.01c-.101.889.171 1.781.753 2.461a4.16 4.16 0 0 0 1.594.778c.541.153 1.057.384 1.532.684l.457.281a2.8 2.8 0 0 1 1.221 1.358 2.85 2.85 0 0 1 .147 1.678 2.93 2.93 0 0 1-.806 1.494 2.7 2.7 0 0 1-1.625.757zm-51.349-24.461c-.538.001-1.069-.114-1.559-.335-.459-.205-.871-.5-1.212-.869-.327-.353-.58-.767-.746-1.218-.333-.9-.29-1.897.121-2.764 1.336-2.842 2.974-5.532 4.884-8.025 1.92-2.502 4.099-4.793 6.502-6.836a3.8 3.8 0 0 1 5.272.359 3.6 3.6 0 0 1-.369 5.16 37.17 37.17 0 0 0-5.425 5.7 36.68 36.68 0 0 0-4.072 6.694 3.66 3.66 0 0 1-1.405 1.568 3.8 3.8 0 0 1-1.991.566zm56.506 0c-.653-.002-1.291-.197-1.832-.562-.572-.387-1.02-.932-1.29-1.568a37.45 37.45 0 0 0-3.736-6.694 36.05 36.05 0 0 0-4.978-5.7c-.697-.652-1.117-1.547-1.174-2.5a3.79 3.79 0 0 1 .831-2.654h0c.627-.793 1.579-1.259 2.589-1.269a3.31 3.31 0 0 1 2.246.9c2.226 2.063 4.228 4.354 5.973 6.837a44.79 44.79 0 0 1 4.486 8.025 3.86 3.86 0 0 1 .1 2.8c-.299.895-.941 1.634-1.785 2.055-.445.218-.934.331-1.43.33z" fill="#995fbf"/><g fill="#f2f2f2"><path d="M314.829 115H649.17c6.595 0 11.941 7.163 11.941 16s-5.346 16-11.941 16H314.829c-6.595 0-11.941-7.163-11.941-16s5.346-16 11.941-16z"/><rect width="598" height="265" rx="12" x="88.999" y="224"/></g><path d="M318.888 67h197c8.837 0 16 7.163 16 16s-7.163 16-16 16h-197c-8.837 0-16-7.163-16-16s7.163-16 16-16z" fill="#995fbf"/><g fill="#fff"><rect width="120" height="48" rx="6" x="120.999" y="281"/><rect width="120" height="48" rx="6" x="120.999" y="350"/><rect width="120" height="48" rx="6" x="120.999" y="419"/><rect width="120" height="48" rx="6" x="534.999" y="281"/><rect width="120" height="48" rx="6" x="534.999" y="350"/><rect width="120" height="48" rx="6" x="534.999" y="419"/><rect width="120" height="48" rx="6" x="396.999" y="281"/><rect width="120" height="48" rx="6" x="396.999" y="350"/><rect width="120" height="48" rx="6" x="396.999" y="419"/></g><rect width="120" height="48" rx="6" fill="#995fbf" x="258.999" y="281"/><g fill="#fff"><rect width="120" height="48" rx="6" x="258.999" y="350"/><rect width="120" height="48" rx="6" x="258.999" y="419"/></g><g fill="#995fbf"><circle cx="318.999" cy="248" r="12"/><circle cx="456.999" cy="248" r="12"/></g></svg>