<svg xmlns="http://www.w3.org/2000/svg" width="860.248" height="688" xmlns:v="https://vecta.io/nano"><path d="M217.107 386H5c-2.76-.003-4.997-2.24-5-5V127c.003-2.76 2.24-4.997 5-5h212.107c2.76.003 4.997 2.24 5 5v254c-.003 2.76-2.24 4.997-5 5zM5 124c-1.656.002-2.998 1.344-3 3v254c.002 1.656 1.344 2.998 3 3h212.107c1.656-.002 2.998-1.344 3-3V127c-.002-1.656-1.344-2.998-3-3z" fill="#cacaca"/><path fill="#995fbf" d="M33.553 176h155v96h-155z"/><path d="M33.553 308h39v24h-39zm116 0h39v24h-39zm-58 0h39v24h-39z" fill="#e4e4e4"/><path d="M509.107 264H297c-2.76-.003-4.997-2.24-5-5V5c.003-2.76 2.24-4.997 5-5h212.107c2.76.003 4.997 2.24 5 5v254c-.003 2.76-2.24 4.997-5 5zM297 2c-1.656.002-2.998 1.344-3 3v254c.002 1.656 1.344 2.998 3 3h212.107c1.656-.002 2.998-1.344 3-3V5c-.002-1.656-1.344-2.998-3-3zm214.64 423H299.534c-2.76-.003-4.997-2.24-5-5v-75c.003-2.76 2.24-4.997 5-5H511.64c2.76.003 4.997 2.24 5 5v75c-.003 2.76-2.24 4.997-5 5zm-212.106-83c-1.656.002-2.998 1.344-3 3v75c.002 1.656 1.344 2.998 3 3H511.64c1.656-.002 2.998-1.344 3-3v-75c-.002-1.656-1.344-2.998-3-3z" fill="#cacaca"/><g fill="#e4e4e4"><rect x="326.053" y="170.5" width="154" height="24" rx="12"/><rect x="326.053" y="208.5" width="154" height="24" rx="12"/></g><circle cx="403.053" cy="87.5" r="56" fill="#995fbf"/><rect x="397.087" y="370.5" width="81" height="24" rx="12" fill="#e4e4e4"/><circle cx="355.087" cy="382.5" r="22" fill="#995fbf"/><path d="M859.248 688h-381a1 1 0 1 1 0-2h381a1 1 0 1 1 0 2z" fill="#cacaca"/><g fill="#ffb6b6"><use href="#B"/><use href="#B" x="-119.285" y="-4.142"/><path d="M717.949 675.734h-10.155l-4.832-39.172h14.989l-.002 39.172z"/></g><use href="#C" fill="#2f2e41"/><path fill="#ffb6b6" d="M642.568 675.734h-10.156l-4.831-39.172h14.988l-.001 39.172z"/><use href="#C" x="-75.381" fill="#2f2e41"/><circle cx="867.651" cy="350.906" r="26.819" transform="matrix(.877455 -.479659 .479659 .877455 -231.86478 353.17866)" fill="#ffb8b8"/><path fill="#2f2e41" d="M638.578 453.984l-4.97 7.873-9.94 205.018 20.709-.828 41.419-173.13 16.567 174.786 18.224.829 14.787-203.261-96.796-11.287z"/><g fill="#3f3d56"><path d="M747.095 299.079l-33.963-18.224-38.105-2.485-33.578 20.709s29.436 86.979-2.87 137.509l-4.97 24.023 102.718 7.455s-6.627-107.688 2.485-120.942 8.284-48.045 8.284-48.045z"/><path d="M735.374 303.593l11.721-4.514s20.709 18.224 19.881 62.128-5.303 92.777-5.303 92.777l-15.406 2.485-8.284-71.24-11.597-62.128zm-81.761 0l-11.721-4.514s-20.709 18.224-19.881 62.128 5.303 92.777 5.303 92.777l15.406 2.485 8.284-71.24 11.597-62.128z"/></g><path d="M717.163 217.849c-4.751-4.661-11.279-7.05-17.916-6.558-5.772.466-6.148.606-11.333 3.185a91.53 91.53 0 0 0-9.399 5.141c-.028-1.232-5.144-5.945-5.972-5.032s2.135 6.841 1.473 7.881-6.646-2.677-7.272-3.739c4.623 6.375 10.727 18.979 9.262 26.716 2.068-2.335 5.339-3.194 8.288-2.178s4.996 3.707 5.188 6.82c.326 5.29-4.576 11.09-1.37 15.311 1.834 2.415 5.327 2.616 8.36 2.601l22.435-2.501c4.82-7.682 7.825-13.774 9.137-22.747s-4.448-18.508-10.88-24.9z" fill="#2f2e41"/><defs ><path id="B" d="M746.379 472.045a8.33 8.33 0 0 1 3.327-12.332l-2.944-29.455 13.62 7.149.708 26.875c1.525 3.96-.154 8.435-3.907 10.416s-8.395.841-10.804-2.653z"/><path id="C" d="M720.539 685.578l-32.746-.001v-.414a12.75 12.75 0 0 1 12.746-12.745h.001 20z"/></defs></svg>